<svg xmlns="http://www.w3.org/2000/svg" viewBox="0 0 512 512" role="img" aria-label="Appmax logo">
  <rect width="512" height="512" rx="0" fill="#8b63f6"/>

  <path fill="#cec3eb" d="M220 122h170c44 0 80 36 80 80v142c0 44-36 80-80 80h-70V266c0-49-40-89-89-89h-91v-55c0-22 18-40 40-40z"/>

  <rect x="104" y="220" width="230" height="230" rx="88" fill="#b6a4e7"/>

  <path fill="#f5f5f8" d="M194 220h134l-110 110c-15 15-15 39 0 54l22 22h-46c-22 0-40-18-40-40V260c0-22 18-40 40-40z"/>

  <path fill="#8b63f6" d="M222 319l92-92v78l-66 66c-14 14-36 14-50 0-14-14-14-36 0-50z"/>
</svg>
